<svg width="200" height="100" viewBox="0 0 200 100" xmlns="http://www.w3.org/2000/svg">
 <g id="l"> 
  <path id="prvo" d="m19.50355,16.13475c1.06383,0.70922 2.58401,1.81101 6.02837,4.43262c4.20902,3.20361 8.22841,6.31735 12.76595,7.80142c6.0901,1.99186 9.13354,2.33374 10.81561,1.77305c0.84103,-0.28034 0.94802,-1.40249 1.24113,-2.65957c0.45015,-1.93054 0.63507,-3.90285 0.53191,-6.38298c-0.08873,-2.13319 -1.13358,-4.35717 -2.48227,-5.67376c-0.99092,-0.96733 -1.96933,-1.07819 -2.65957,-1.24114c-0.38586,-0.09109 -1.19745,-0.54578 -2.12766,0c-1.95841,1.14905 -3.08427,4.51766 -4.43262,8.51064c-1.52738,4.52316 -1.68438,9.2172 -1.77305,13.65248c-0.14531,7.26805 0,12.05674 0,15.78014c0,3.36879 0,6.38298 0,9.92908c0,3.5461 0,7.2695 0,10.8156c0,2.65958 0.11333,4.29346 -0.35461,5.49646c-0.28745,0.73898 -0.88652,0.88652 -1.41844,0.88652c-1.06383,0 -2.50206,0.18224 -4.96454,-0.17731c-3.23504,-0.47236 -5.89823,-1.30653 -7.2695,-1.95035c-1.29396,-0.60752 -2.38157,-2.24824 -3.5461,-3.90071c-1.3317,-1.88968 -1.95036,-4.25532 -2.12766,-6.20567c-0.17731,-1.95036 -0.87771,-4.64017 0.1773,-6.91489c0.89831,-1.93686 3.4725,-3.33909 6.20568,-4.60993c2.5974,-1.20771 5.1641,-1.91053 7.0922,-3.01418c1.79452,-1.0272 4.94693,-3.22218 7.0922,-4.43262c1.93487,-1.09173 3.22902,-1.89966 3.72341,-2.30496c0.19391,-0.15897 -0.03069,-0.20342 -0.17731,0c-0.23182,0.32163 -0.88479,2.09047 -1.06383,3.36879c-0.24592,1.75591 0.08849,3.59878 1.06383,5.14184c0.81493,1.28928 2.28459,1.9981 3.90071,2.65958c1.402,0.57384 3.36879,1.06383 4.78723,1.06383c2.12766,0 3.35159,-0.38276 4.78724,-1.24113c1.2269,-0.73356 2.2102,-1.74434 2.48227,-2.65957c0.25761,-0.8666 0.1773,-1.77305 0.1773,-2.83688c0,-0.88652 -0.11087,-1.84639 -0.88652,-2.48227c-0.98877,-0.8106 -2.76085,-2.12898 -4.25532,-2.65958c-1.54046,-0.54692 -3.15017,-1.20928 -4.78724,-1.59574c-1.2202,-0.28805 -1.95036,-0.35461 -2.65957,-0.35461c-0.17731,0 -0.70922,0 -1.24113,0c-0.35461,0 -0.91301,0.08409 -1.06383,0.1773c-0.33725,0.20844 -0.44871,0.94051 -0.1773,1.59575c0.47978,1.1583 1.94655,1.42809 2.83688,1.77305c1.41257,0.5473 2.65221,0.79774 4.25532,0.88653c1.0622,0.05883 2.66562,0.14624 4.43262,0c1.07483,-0.08895 2.15548,-0.62333 3.36879,-1.06383c1.64142,-0.59594 2.99315,-1.11587 4.25532,-1.59575c1.57226,-0.59777 2.33355,-0.66425 3.19149,-1.24113c0.73568,-0.49467 0.88652,-0.70922 1.24113,-1.06383c0.1773,-0.1773 0.56858,-0.676 0.88652,-1.06383c0.4053,-0.49438 0.53191,-0.88652 0.70922,-1.24113c0.17731,-0.35461 0.35461,-0.35461 0.53191,-0.35461c0.17731,0 0.67797,0.08622 1.06384,0.1773c0.51768,0.12221 1.10449,0.23617 1.77305,0.53192c0.58463,0.25863 1.26396,0.55508 1.77305,0.70922c0.61185,0.18525 1.21778,0.58309 1.95036,0.88653c0.51801,0.21457 0.88652,0.35461 0.70922,0.1773c-0.17731,-0.17731 -1.04726,-0.91203 -2.12766,-1.59575c-0.87362,-0.55286 -1.56449,-0.97274 -1.95036,-1.06383c-0.34512,-0.08147 -0.53191,-0.17731 -0.70922,-0.17731c-0.1773,0 -0.7144,-0.10483 -1.77305,0c-0.89969,0.08909 -1.74659,0.74646 -2.48227,1.24113c-0.85795,0.57688 -1.37299,1.27288 -2.12766,2.30497c-0.67011,0.91644 -1.32367,1.92164 -1.59574,2.83688c-0.51523,1.7332 -0.79757,3.00319 -0.88652,4.07801c-0.11699,1.4136 0.19614,2.76469 1.06383,3.90071c0.60881,0.79708 1.38341,1.49519 2.48227,1.95036c1.03601,0.42913 3.00195,1.28328 3.5461,1.41844c2.09341,0.51995 3.37415,0.50544 5.49645,0.35461c2.50116,-0.17775 5.07994,-1.02029 7.26951,-2.30496c2.08002,-1.2204 3.54753,-2.95201 3.9007,-4.25532c0.37387,-1.37972 0.35461,-2.48227 0.35461,-2.83688c0,-0.53191 0.05451,-0.7422 -0.17731,-1.06383c-0.14661,-0.20342 -0.35461,-0.17731 -0.53191,-0.17731c-0.17731,0 -0.29854,0.0091 -0.35461,0.17731c-0.28035,0.84103 -0.62775,0.89601 -0.70922,1.24113c-0.09109,0.38586 -0.31735,0.72313 -0.53191,1.24113c-0.30344,0.73257 -0.53192,1.24113 -0.53192,2.12766c0,0.70922 -0.21273,1.66665 0.17731,2.48227c0.59743,1.2493 1.44202,1.69672 2.12766,1.95036c0.74368,0.2751 2.47784,0.79782 5.14184,0.88652c2.83531,0.09441 5.02126,0.32922 6.38298,-0.88652c1.13776,-1.01579 1.53543,-2.4871 1.41844,-3.90071c-0.17791,-2.14966 -0.72806,-3.29661 -1.59574,-4.43262c-0.6088,-0.79708 -1.94396,-1.78822 -3.19149,-2.30496c-0.88214,-0.36539 -1.60107,-0.61857 -2.30497,-0.53192c-0.72557,0.08932 -2.44614,0.73781 -3.01418,1.41844c-0.25404,0.30439 -0.53191,1.41844 -0.53191,2.12766c0,1.06383 0.01988,1.93587 0.53191,2.65958c0.36923,0.52187 0.95249,0.7775 1.59575,1.24113c0.61024,0.43984 1.90728,1.06151 3.01418,1.24113c1.57513,0.25561 3.02961,0.22133 4.60992,0c1.27832,-0.17904 2.55478,-1.02418 3.01419,-1.95036c0.42429,-0.85537 0.53191,-1.77305 0.53191,-2.65958c0,-0.70922 -0.22924,-1.0119 -0.35461,-0.88652c-0.37612,0.37612 -0.10483,1.77823 0,2.83688c0.08909,0.89968 0.83305,1.67584 2.12766,2.48227c2.22204,1.38413 5.67376,2.83688 10.10638,4.60993l6.91489,1.95036l2.48227,0.35461"  stroke="#ff0000" fill="none"/>
  <path id="drugo" transform="rotate(-15.6725 152.09 50.0713)" stroke="#000000" d="m115.1043,23.53612c0.2713,0.26815 1.25484,1.7198 2.44172,2.68149c1.51296,1.2259 3.44609,2.56714 5.42603,3.48593c2.09825,0.9737 4.32818,1.47456 6.51125,1.60889c1.35389,0.08331 2.79143,0.25508 4.0695,-0.26815c0.90373,-0.36999 1.2191,-1.30818 1.35652,-2.14519c0.08692,-0.52937 0.24933,-1.90573 0,-2.94964c-0.27875,-1.16712 -1.58204,-2.47247 -2.98433,-3.48593c-0.78961,-0.57067 -1.0852,-0.5363 -1.3565,-0.5363c-0.2713,0 -0.58926,-0.15033 -0.81391,0c-1.20981,0.80956 -1.27362,3.50809 -1.89911,5.63112c-0.71959,2.44243 -1.3501,5.36356 -1.62781,8.31261c-0.53038,5.63227 -0.54259,8.84891 -0.54259,11.26225c0,1.87704 0,3.48593 0,5.36297c0,1.6089 0,3.21779 0,4.55853c0,1.34074 0,2.41334 0,2.94963c0,0.26815 -0.13388,0.77188 -0.2713,1.6089c-0.08692,0.52938 0,1.6089 0,2.14519c0,0.53629 0,1.07259 0,1.60889c0,0.26815 0,0.80444 0,1.34074c0,0.80445 -0.18699,2.43486 0,3.21778c0.13939,0.58356 0.54259,0.5363 0.81389,0.5363c0.2713,0 0.54261,0 1.08522,0c0.54259,0 1.39587,0.28631 2.4417,0c1.52456,-0.41737 2.70334,-1.7234 4.06953,-4.29038c0.68018,-1.278 1.21984,-2.92491 1.35652,-4.02223c0.09944,-0.79842 0,-1.34074 0,-1.6089c0,-0.26815 -0.2713,-0.26815 -0.81391,0.80445c-0.81391,1.60889 -1.34434,2.82874 -1.62781,3.75408c-0.31448,1.02657 0,1.87704 0,2.68149c0,0.80444 0.18814,1.73192 0.54261,1.87704c0.50128,0.20522 0.77394,0.04641 1.0852,0.26815c0.49215,0.35059 1.0852,0.26815 2.17042,0.26815c1.0852,0 2.44172,-0.80444 3.52692,-1.6089c1.0852,-0.80444 2.02512,-1.46529 2.98431,-2.41334c0.95919,-0.94805 1.35652,-1.87704 1.62783,-2.68149c0.27128,-0.80444 0.92627,-1.22967 0.54259,-1.6089c-0.19185,-0.18961 -0.57469,-0.12653 -0.81389,0c-0.86246,0.4562 -1.23406,2.0835 -1.62781,3.21779c-0.44894,1.29329 -0.41002,2.42138 -0.54261,3.48593c-0.13668,1.09732 -0.2713,1.6089 -0.2713,2.14519c0,0.26815 0,0.80444 0.2713,0.80444c0.2713,0 0.54261,0 0.81389,0c0.2713,0 0.54261,0 0.81391,0c0.2713,0 1.88382,-0.31865 2.71303,-0.5363c1.33703,-0.35094 2.73259,-0.60161 3.79822,-0.80444c1.43465,-0.27308 2.73276,-1.04094 4.0695,-1.87704c1.65319,-1.03402 2.98433,-2.41334 4.06953,-3.48594c1.62781,-1.6089 3.83439,-3.99146 5.69733,-6.16742c2.49078,-2.90929 3.60698,-4.399 4.34083,-6.43557c0.55368,-1.53654 0.2713,-2.94964 0.2713,-3.21778c0,-0.26815 0.19185,-0.61484 0,-0.80445c-0.19185,-0.18961 -0.81391,0 -1.0852,0c-0.2713,0 -0.86439,0.1857 -1.35652,0.5363c-0.93376,0.6652 -1.68762,1.83181 -2.713,3.21778c-1.15477,1.56088 -2.09108,3.517 -2.98433,5.63113c-1.49689,3.54279 -2.68139,5.82481 -3.25561,8.04446c-0.47523,1.837 -0.6778,3.4693 -0.81391,5.09483c-0.13427,1.60341 0,2.68149 0,3.48593c0,1.0726 -0.14263,1.64894 0,1.87704c0.31894,0.51005 0.7661,0.66669 1.35652,0.80445c0.52806,0.12321 1.0852,0 1.62781,0c0.54259,0 1.67037,0.1127 3.25561,-0.5363c1.68141,-0.68837 2.99178,-1.32859 4.34083,-2.14519c2.18265,-1.32119 3.74293,-1.92028 4.61211,-2.94963c0.77742,-0.92069 1.08522,-2.14519 1.08522,-2.94964c0,-0.80444 0.08342,-1.39062 -0.2713,-1.87704c-0.22435,-0.30764 -0.73075,-0.65933 -1.0852,-0.80444c-0.75195,-0.30786 -1.08522,0 -1.62783,0c-0.27128,0 -0.56323,-0.10262 -0.81389,0c-0.35447,0.14512 -0.66708,0.45409 -0.81391,0.80444c-0.31146,0.74321 -0.28527,1.42084 0,1.87704c0.31894,0.51005 0.79605,0.57499 1.35652,0.80444c0.79262,0.32449 1.32528,0.34171 1.89911,0.5363c1.3085,0.44373 2.4417,0.5363 3.25561,0.5363c1.0852,0 1.89911,0 2.98431,0c0.81391,0 2.7491,-0.15272 3.79822,-0.5363c1.13794,-0.41606 2.27135,-0.63955 3.25564,-1.34074c0.62251,-0.44347 1.3565,-1.34074 1.62781,-1.6089c0.54259,-0.53629 0.6745,-1.56163 0.81389,-2.14519c0.12466,-0.52195 -0.23133,-0.85086 -0.54259,-1.0726c-0.49213,-0.35061 -0.81391,-0.26815 -1.08522,-0.26815c-0.2713,0 -0.57754,-0.23311 -1.3565,0c-0.93624,0.28017 -2.08088,1.09802 -3.25561,2.14519c-1.00735,0.89795 -1.18597,1.27284 -1.89911,2.41334c-0.63787,1.0201 -1.17681,2.49646 -1.62783,3.21778c-0.2017,0.32258 -0.27128,1.0726 -0.27128,1.6089c0,0.26815 0,0.5363 0,1.07259c0,0.26815 0.25176,0.9683 0.81389,1.6089c0.39748,0.45297 1.12652,0.33108 1.62781,0.5363c0.70894,0.29024 1.3349,0.84948 2.44172,1.34074c1.33278,0.59156 2.41669,0.93751 3.52692,1.0726c0.80782,0.0983 1.89911,0 2.44172,0c0.2713,0 0.54261,0 0.81389,0c0.2713,0 0.2713,-0.26815 -0.27128,-0.5363l-1.08522,-0.5363l-0.54261,0" fill="none"/>
 </g>

 <style>
 

#l{
stroke-dasharray: 416;
stroke-dashoffset: 416;
animation: draw 10s ease infinite;
}
 

@keyframes draw{
 
    0%{
        stroke-dashoffset: 416;
    }
    50%{
        stroke-dashoffset: 0;
    }
    100%{
        stroke-dashoffset: 416;
    }

}

 </style>
</svg>